<svg xmlns="http://www.w3.org/2000/svg" width="97" height="84" viewBox="0 0 97 84">
  <metadata><?xpacket begin="﻿" id="W5M0MpCehiHzreSzNTczkc9d"?>
<x:xmpmeta xmlns:x="adobe:ns:meta/" x:xmptk="Adobe XMP Core 5.6-c138 79.159824, 2016/09/14-01:09:01        ">
   <rdf:RDF xmlns:rdf="http://www.w3.org/1999/02/22-rdf-syntax-ns#">
      <rdf:Description rdf:about=""/>
   </rdf:RDF>
</x:xmpmeta>
                                                                                                    
                                                                                                    
                                                                                                    
                                                                                                    
                                                                                                    
                                                                                                    
                                                                                                    
                                                                                                    
                                                                                                    
                                                                                                    
                                                                                                    
                                                                                                    
                                                                                                    
                                                                                                    
                                                                                                    
                                                                                                    
                                                                                                    
                                                                                                    
                                                                                                    
                                                                                                    
                           
<?xpacket end="w"?></metadata>
<defs>
    <style>
      .cls-1 {
        fill: #574de0;
        fill-rule: evenodd;
      }
    </style>
  </defs>
  <path id="icon-like-plus" class="cls-1" d="M522.214,806.426a24.463,24.463,0,0,0-24.25,24.671A24.775,24.775,0,0,0,507,850.3c-7.125,5.337-12.5,8.7-12.5,8.7S446,828.748,446,804.37C446,789.684,454.948,775,471.981,775c15.59,0,22.518,15.021,22.518,15.021S500.562,775,517.017,775s25.694,14.391,25.694,29.371a25.518,25.518,0,0,1-2.482,10.253A23.982,23.982,0,0,0,522.214,806.426Zm0,3.524A21.15,21.15,0,1,1,501.428,831.1,20.969,20.969,0,0,1,522.214,809.95Zm-10.393,24.672h6.929v7.049h6.929v-7.049h6.928v-7.049h-6.928v-7.049H518.75v7.049h-6.929v7.049Z" transform="translate(-446 -775)"/>
</svg>
