<svg xmlns="http://www.w3.org/2000/svg" width="20" height="17.5" viewBox="0 0 20 17.5"><path d="M10-16.25A9.7,9.7,0,0,1,15.02-14.9a10.12,10.12,0,0,1,3.633,3.633A9.7,9.7,0,0,1,20-6.25v1.875a1.232,1.232,0,0,1-.2.664,1.253,1.253,0,0,1-.508.469l-.547.273A4.287,4.287,0,0,1,17.4.02a4.2,4.2,0,0,1-3.027,1.23h-.937a.9.9,0,0,1-.664-.273A.9.9,0,0,1,12.5.313V-6.562a.9.9,0,0,1,.273-.664.9.9,0,0,1,.664-.273h.938a4.181,4.181,0,0,1,1.7.352,4.636,4.636,0,0,1,1.426.977V-6.25A7.239,7.239,0,0,0,16.484-10a7.643,7.643,0,0,0-2.734-2.734A7.239,7.239,0,0,0,10-13.75a7.239,7.239,0,0,0-3.75,1.016A7.643,7.643,0,0,0,3.516-10,7.239,7.239,0,0,0,2.5-6.25v.078a4.636,4.636,0,0,1,1.426-.977,4.181,4.181,0,0,1,1.7-.352h.938a.9.9,0,0,1,.664.273.9.9,0,0,1,.273.664V.313a.9.9,0,0,1-.273.664.9.9,0,0,1-.664.273H5.625A4.2,4.2,0,0,1,2.6.02,4.287,4.287,0,0,1,1.25-2.969L.7-3.242A1.253,1.253,0,0,1,.2-3.711,1.232,1.232,0,0,1,0-4.375V-6.25a9.7,9.7,0,0,1,1.348-5.02A10.12,10.12,0,0,1,4.98-14.9,9.7,9.7,0,0,1,10-16.25Z" transform="translate(0 16.25)" fill="#2584d9"/></svg>