<svg xmlns="http://www.w3.org/2000/svg" width="109" height="79.031" viewBox="0 0 109 79.031">
  <metadata><?xpacket begin="﻿" id="W5M0MpCehiHzreSzNTczkc9d"?>
<x:xmpmeta xmlns:x="adobe:ns:meta/" x:xmptk="Adobe XMP Core 5.6-c138 79.159824, 2016/09/14-01:09:01        ">
   <rdf:RDF xmlns:rdf="http://www.w3.org/1999/02/22-rdf-syntax-ns#">
      <rdf:Description rdf:about=""/>
   </rdf:RDF>
</x:xmpmeta>
                                                                                                    
                                                                                                    
                                                                                                    
                                                                                                    
                                                                                                    
                                                                                                    
                                                                                                    
                                                                                                    
                                                                                                    
                                                                                                    
                                                                                                    
                                                                                                    
                                                                                                    
                                                                                                    
                                                                                                    
                                                                                                    
                                                                                                    
                                                                                                    
                                                                                                    
                                                                                                    
                           
<?xpacket end="w"?></metadata>
<defs>
    <style>
      .cls-1 {
        fill: #574de0;
        fill-rule: evenodd;
      }
    </style>
  </defs>
  <path id="icon-rocket" class="cls-1" d="M1359,811.622s-5.4-4.261-16.06-2.193a144.938,144.938,0,0,0-28.14-24.292s9.58-10.6,21.65-3.956C1357.11,792.556,1359,811.622,1359,811.622Zm-25.92,29.49s-30.83-6.34-41.74-12.346a71.075,71.075,0,0,1-12.45-8.689l20.67-37.065a70.588,70.588,0,0,1,14.03,5.876c10.74,5.915,32.67,28.588,32.67,28.588Zm-37.85-36.249a8.609,8.609,0,0,0,3.39,11.737,8.729,8.729,0,0,0,11.82-3.364,8.611,8.611,0,0,0-3.4-11.736A8.719,8.719,0,0,0,1295.23,804.863Zm-34.86-17.07-10.36-5.7,1.64-2.94,10.09,5.556c4.34-2,17.24-6.784,34.62-2.587l-19.93,35.736C1263.98,805.809,1261.05,792.892,1260.37,787.793Zm74.47,67.16s-17.28,8.509-37.94-2.866c-12.06-6.644-8.1-20.336-8.1-20.336a145.786,145.786,0,0,0,35.65,10.833C1328.34,852.661,1334.84,854.953,1334.84,854.953Zm16.38-25.8-3.85,1.1,6.8,7.176-10-1.431,3.1,4.5-9.5-1.158,9.42-16.906Z" transform="translate(-1250 -779)"/>
</svg>
