<svg xmlns="http://www.w3.org/2000/svg" width="20" height="20.007" viewBox="0 0 20 20.007"><path d="M20-16.25V-2.5A2.1,2.1,0,0,1,18.906-.723,4.711,4.711,0,0,1,16.25,0a4.711,4.711,0,0,1-2.656-.723A2.1,2.1,0,0,1,12.5-2.5a2.1,2.1,0,0,1,1.094-1.777A4.711,4.711,0,0,1,16.25-5a5.469,5.469,0,0,1,1.25.156V-12.07l-10,2.93V0A2.1,2.1,0,0,1,6.406,1.777,4.711,4.711,0,0,1,3.75,2.5a4.711,4.711,0,0,1-2.656-.723A2.1,2.1,0,0,1,0,0,2.1,2.1,0,0,1,1.094-1.777,4.711,4.711,0,0,1,3.75-2.5,5.469,5.469,0,0,1,5-2.344v-10.2a1.288,1.288,0,0,1,.234-.762,1.148,1.148,0,0,1,.625-.449l12.5-3.711a1.3,1.3,0,0,1,1.133.215A1.172,1.172,0,0,1,20-16.25Z" transform="translate(0 17.507)" fill="#2584d9"/></svg>