<svg xmlns="http://www.w3.org/2000/svg" width="13.75" height="20" viewBox="0 0 13.75 20"><path d="M6.875-3.75A3.616,3.616,0,0,1,4.219-4.844,3.616,3.616,0,0,1,3.125-7.5v-6.25a3.616,3.616,0,0,1,1.094-2.656A3.616,3.616,0,0,1,6.875-17.5a3.616,3.616,0,0,1,2.656,1.094,3.616,3.616,0,0,1,1.094,2.656V-7.5A3.616,3.616,0,0,1,9.531-4.844,3.616,3.616,0,0,1,6.875-3.75ZM13.125-10a.608.608,0,0,1,.449.176.608.608,0,0,1,.176.449V-7.5a6.66,6.66,0,0,1-.781,3.184A6.856,6.856,0,0,1,10.82-1.895,6.87,6.87,0,0,1,7.813-.7V.625H10a.6.6,0,0,1,.625.625v.625A.6.6,0,0,1,10,2.5H3.75a.6.6,0,0,1-.625-.625V1.25A.6.6,0,0,1,3.75.625H5.938V-.7a6.55,6.55,0,0,1-3.047-1.25A7,7,0,0,1,.762-4.512,7.357,7.357,0,0,1,0-7.812V-9.375a.608.608,0,0,1,.176-.449A.608.608,0,0,1,.625-10H1.25a.608.608,0,0,1,.449.176.608.608,0,0,1,.176.449v1.641a5.314,5.314,0,0,0,.586,2.441A5.189,5.189,0,0,0,4.082-3.4a4.594,4.594,0,0,0,2.285.859A4.753,4.753,0,0,0,9.1-3.027a5.151,5.151,0,0,0,2.012-1.836A4.8,4.8,0,0,0,11.875-7.5V-9.375a.608.608,0,0,1,.176-.449A.608.608,0,0,1,12.5-10Z" transform="translate(0 17.5)" fill="#2584d9"/></svg>