<svg xmlns="http://www.w3.org/2000/svg" width="25.022" height="17.511" viewBox="0 0 25.022 17.511"><path d="M2.07-15.9a.79.79,0,0,1,.293-.293.528.528,0,0,1,.371-.059L12.5-15,8.906-9.062a.635.635,0,0,1-.312.273.508.508,0,0,1-.391,0L.469-10.977a.6.6,0,0,1-.43-.352.585.585,0,0,1,.039-.547Zm22.852,4.023a.585.585,0,0,1,.039.547.6.6,0,0,1-.43.352L16.8-8.789a.508.508,0,0,1-.391,0,.635.635,0,0,1-.312-.273L12.5-15l9.766-1.25a.528.528,0,0,1,.371.059.79.79,0,0,1,.293.293ZM16.641-7.5a1.6,1.6,0,0,0,.508-.078L22.5-9.1v6.953a1.164,1.164,0,0,1-.273.762,1.349,1.349,0,0,1-.664.449L13.086,1.172a2.385,2.385,0,0,1-1.211,0L3.438-.937a1.349,1.349,0,0,1-.664-.449A1.164,1.164,0,0,1,2.5-2.148V-9.1L7.852-7.578a1.6,1.6,0,0,0,.508.078A1.81,1.81,0,0,0,9.3-7.754,2.23,2.23,0,0,0,10-8.4l2.5-4.18L15-8.4a2.23,2.23,0,0,0,.7.645A1.81,1.81,0,0,0,16.641-7.5Z" transform="translate(0.011 16.261)" fill="#2584d9"/></svg>