<svg xmlns="http://www.w3.org/2000/svg" width="20" height="17.499" viewBox="0 0 20 17.499"><path d="M19.688-10.078a.892.892,0,0,1,.313.7.892.892,0,0,1-.312.7L12.813-2.734a.869.869,0,0,1-.684.234,1.006,1.006,0,0,1-.625-.293.873.873,0,0,1-.254-.645V-6.875a15.226,15.226,0,0,0-4.883.664A3.53,3.53,0,0,0,3.984-3.965,7.535,7.535,0,0,0,4.336.391a.541.541,0,0,1-.059.547.75.75,0,0,1-.469.293.706.706,0,0,1-.566-.137A7.794,7.794,0,0,1,.977-1.484,6.905,6.905,0,0,1,0-4.922a6.039,6.039,0,0,1,3.281-5.82Q5.9-12.109,11.25-12.187v-3.125a.873.873,0,0,1,.254-.645,1.006,1.006,0,0,1,.625-.293.869.869,0,0,1,.684.234Z" transform="translate(0 16.255)" fill="#fff"/></svg>